M48
; DRILL file {KiCad (5.1.5)-3} date 9/20/2020 7:44:16 PM
; FORMAT={-:-/ absolute / metric / decimal}
; #@! TF.CreationDate,2020-09-20T19:44:16-07:00
; #@! TF.GenerationSoftware,Kicad,Pcbnew,(5.1.5)-3
; #@! TF.FileFunction,Plated,1,2,PTH
FMAT,2
METRIC
T1C0.400
T2C0.800
T3C1.000
T4C2.540
%
G90
G05
T1
X71.12Y-86.868
X71.12Y-90.932
X74.93Y-101.854
X82.55Y-86.868
X82.55Y-95.25
X102.87Y-135.89
X129.54Y-87.884
X129.54Y-101.6
X131.826Y-91.694
X133.35Y-92.71
X136.398Y-96.774
X136.906Y-94.996
T2
X109.22Y-86.36
X111.76Y-86.36
X114.3Y-86.36
X116.84Y-86.36
X177.8Y-121.92
X177.8Y-124.46
X177.8Y-127.0
X177.8Y-129.54
X177.8Y-132.08
X177.8Y-134.62
X180.34Y-121.92
X180.34Y-124.46
X180.34Y-127.0
X180.34Y-129.54
X180.34Y-132.08
X180.34Y-134.62
X68.58Y-93.98
X68.58Y-96.52
X68.58Y-99.06
X68.58Y-101.6
X68.58Y-104.14
X68.58Y-106.68
X68.58Y-109.22
X68.58Y-111.76
X68.58Y-114.3
X68.58Y-116.84
X68.58Y-119.38
X68.58Y-121.92
X68.58Y-124.46
X68.58Y-127.0
X68.58Y-129.54
X68.58Y-132.08
X68.58Y-134.62
X68.58Y-137.16
X68.58Y-139.7
X93.98Y-93.98
X93.98Y-96.52
X93.98Y-99.06
X93.98Y-101.6
X93.98Y-104.14
X93.98Y-106.68
X93.98Y-109.22
X93.98Y-111.76
X93.98Y-114.3
X93.98Y-116.84
X93.98Y-119.38
X93.98Y-121.92
X93.98Y-124.46
X93.98Y-127.0
X93.98Y-129.54
X93.98Y-132.08
X93.98Y-134.62
X93.98Y-137.16
X93.98Y-139.7
X172.72Y-107.95
X175.26Y-107.95
X177.8Y-107.95
X180.34Y-107.95
X142.24Y-86.36
X142.24Y-88.9
X142.24Y-96.52
X142.24Y-99.06
X142.24Y-101.6
X142.24Y-104.14
X142.24Y-106.68
X142.24Y-109.22
X142.24Y-111.76
X142.24Y-114.3
X142.24Y-116.84
X142.24Y-119.38
X142.24Y-121.92
X142.24Y-124.46
X144.78Y-86.36
X144.78Y-88.9
X147.32Y-86.36
X147.32Y-88.9
X149.86Y-86.36
X149.86Y-88.9
X152.4Y-86.36
X152.4Y-88.9
X154.94Y-86.36
X154.94Y-88.9
X157.48Y-86.36
X157.48Y-88.9
X160.02Y-86.36
X160.02Y-88.9
X162.56Y-96.52
X162.56Y-99.06
X162.56Y-101.6
X162.56Y-104.14
X162.56Y-106.68
X162.56Y-109.22
X162.56Y-111.76
X162.56Y-114.3
X162.56Y-116.84
X162.56Y-119.38
X162.56Y-121.92
X162.56Y-124.46
X162.56Y-127.0
X162.56Y-129.54
X162.56Y-132.08
X162.56Y-134.62
X180.34Y-80.01
X180.34Y-82.55
X180.34Y-85.09
X180.34Y-87.63
X180.34Y-90.17
X180.34Y-92.71
X142.24Y-68.58
X142.24Y-71.12
X142.24Y-73.66
X144.78Y-68.58
X144.78Y-71.12
X144.78Y-73.66
X147.32Y-68.58
X147.32Y-71.12
X147.32Y-73.66
X149.86Y-68.58
X149.86Y-71.12
X149.86Y-73.66
X152.4Y-68.58
X152.4Y-71.12
X152.4Y-73.66
X154.94Y-68.58
X154.94Y-71.12
X154.94Y-73.66
X157.48Y-68.58
X157.48Y-71.12
X157.48Y-73.66
X160.02Y-68.58
X160.02Y-71.12
X160.02Y-73.66
X162.56Y-68.58
X162.56Y-71.12
X162.56Y-73.66
X165.1Y-68.58
X165.1Y-71.12
X165.1Y-73.66
X167.64Y-68.58
X167.64Y-71.12
X167.64Y-73.66
X170.18Y-68.58
X170.18Y-71.12
X170.18Y-73.66
X172.72Y-68.58
X172.72Y-71.12
X172.72Y-73.66
X175.26Y-68.58
X175.26Y-71.12
X175.26Y-73.66
X177.8Y-68.58
X177.8Y-71.12
X177.8Y-73.66
X119.38Y-68.58
X119.38Y-71.12
X121.92Y-68.58
X121.92Y-71.12
X124.46Y-68.58
X124.46Y-71.12
X127.0Y-68.58
X127.0Y-71.12
X129.54Y-68.58
X129.54Y-71.12
X93.98Y-68.524
X93.98Y-71.064
X96.52Y-68.524
X96.52Y-71.064
X99.06Y-68.524
X99.06Y-71.064
X101.6Y-68.524
X101.6Y-71.064
X104.14Y-68.524
X104.14Y-71.064
X106.68Y-68.524
X106.68Y-71.064
X109.22Y-111.76
X109.22Y-114.3
X109.22Y-116.84
X109.22Y-119.38
X109.22Y-121.92
X109.22Y-124.46
X109.22Y-127.0
X109.22Y-129.54
X109.22Y-132.08
X129.54Y-114.3
X129.54Y-116.84
X129.54Y-119.38
X129.54Y-121.92
X129.54Y-124.46
X129.54Y-127.0
X68.58Y-68.58
X68.58Y-71.12
X71.12Y-68.58
X71.12Y-71.12
X73.66Y-68.58
X73.66Y-71.12
X76.2Y-68.58
X76.2Y-71.12
X78.74Y-68.58
X78.74Y-71.12
X81.28Y-68.58
X81.28Y-71.12
T3
X116.84Y-99.06
X119.38Y-99.06
X123.19Y-99.14
X125.73Y-99.14
X109.31Y-99.14
X111.85Y-99.14
X172.72Y-114.3
X175.26Y-114.3
T4
X182.88Y-142.216
X63.514Y-68.556
X182.894Y-68.556
X63.514Y-142.24
X122.95Y-110.72
T0
M30
